<svg width="371" height="1049" viewBox="0 0 371 1049" fill="none" xmlns="http://www.w3.org/2000/svg">
<path d="M370.5 867L-3.00003 749L-3.00004 822.5L256.5 899L-3.00005 976L-3.00006 1049L370.5 931L370.5 867Z" fill="#FFA101"/>
<path d="M370.5 371.5L-3 253.5L-3.00001 327L256.5 403.5L-3.00002 480.5L-3.00003 553.5L370.5 435.5L370.5 371.5Z" fill="#FFA101"/>
<path d="M-3.00003 677.5L370.5 795.5L370.5 722L111 645.5L370.5 568.5L370.5 495.5L-3.00002 613.5L-3.00003 677.5Z" fill="#31525B"/>
<path d="M-2.99997 182L370.5 300L370.5 226.5L111 150L370.5 73.0001L370.5 6.53048e-05L-2.99996 118L-2.99997 182Z" fill="#31525B"/>
</svg>
