<svg width="354" height="1049" viewBox="0 0 354 1049" fill="none" xmlns="http://www.w3.org/2000/svg">
<path d="M3.05176e-05 182L373.5 300V226.5L114 150L373.5 73V0L3.05176e-05 118V182Z" fill="#FFA101"/>
<path d="M3.05176e-05 677.5L373.5 795.5V722L114 645.5L373.5 568.5V495.5L3.05176e-05 613.5V677.5Z" fill="#FFA101"/>
<path d="M373.5 371.5L-4.29075e-06 253.5L-1.07163e-05 327L259.5 403.5L-2.41357e-05 480.5L-3.05176e-05 553.5L373.5 435.5L373.5 371.5Z" fill="#FAE6B1"/>
<path d="M373.5 867L-4.29075e-06 749L-1.07163e-05 822.5L259.5 899L-2.41357e-05 976L-3.05176e-05 1049L373.5 931L373.5 867Z" fill="#FAE6B1"/>
</svg>
