<svg width="61" height="15" viewBox="0 0 61 15" fill="none" xmlns="http://www.w3.org/2000/svg">
<path d="M0 7.87966L10.8037 11.2607V9.15473L3.29753 6.96275L10.8037 4.75645V2.66476L0 6.04585V7.87966Z" fill="#31525B"/>
<path d="M23.512 8.68195C23.4975 6.26075 21.5306 4.71347 18.5512 4.71347C17.0326 4.71347 15.5285 5.22923 14.8198 6.08883V4.97135H12.39V15H14.8198V11.2464C15.4562 11.9628 16.9314 12.5645 18.5512 12.5645C21.5306 12.5645 23.5264 11.0029 23.512 8.68195ZM18.1752 10.9169C16.7144 10.9169 15.3405 10.5158 14.8198 9.89971V7.4212C15.2826 6.81948 16.6566 6.43266 18.1752 6.43266C19.8673 6.43266 20.9954 7.33524 20.9954 8.68195C20.9954 10.0287 19.8673 10.9169 18.1752 10.9169Z" fill="#31525B"/>
<path d="M36.1001 12.149V12.106L35.8108 10.6734V7.80802C35.8108 5.75931 33.8005 4.39828 30.1992 4.39828C28.16 4.39828 25.8748 5.07163 25.0794 5.74499L25.629 7.40688L25.6579 7.49284C26.6847 6.69055 28.7385 6.26075 30.1992 6.26075C32.0071 6.26075 33.4534 6.44699 33.4967 7.69341H30.0835C26.2075 7.69341 24.7467 8.55301 24.7467 10.0573C24.7467 11.8052 26.2075 12.3926 29.0567 12.3926C30.6331 12.3926 32.629 11.8768 33.4967 11.0888V12.149H36.1001ZM29.7075 10.7163C27.8128 10.7163 27.2199 10.4871 27.2199 9.91404C27.2199 9.26934 27.8418 9.01146 29.693 9.01146H33.4967V9.1404C33.4967 10.1146 31.9203 10.7163 29.7075 10.7163Z" fill="#31525B"/>
<path d="M37.6119 13.8252L37.6553 13.8825H39.8102L48.7483 0.0573067L48.7049 0H46.5499L37.6119 13.8252Z" fill="#31525B"/>
<path d="M50.1963 9.15473V11.2607L61 7.87966V6.04585L50.1963 2.66476V4.75645L57.7025 6.96275L50.1963 9.15473Z" fill="#31525B"/>
</svg>
