<svg width="102" height="26" viewBox="0 0 102 26" fill="none" xmlns="http://www.w3.org/2000/svg">
<path d="M0.200012 13.872L18.128 19.536V16.008L5.67201 12.336L18.128 8.64V5.136L0.200012 10.8V13.872Z" fill="#31525B"/>
<path d="M39.2163 15.216C39.1923 11.16 35.9283 8.568 30.9843 8.568C28.4643 8.568 25.9683 9.432 24.7923 10.872V9H20.7603V25.8H24.7923V19.512C25.8483 20.712 28.2963 21.72 30.9843 21.72C35.9283 21.72 39.2403 19.104 39.2163 15.216ZM30.3603 18.96C27.9363 18.96 25.6563 18.288 24.7923 17.256V13.104C25.5603 12.096 27.8403 11.448 30.3603 11.448C33.1683 11.448 35.0403 12.96 35.0403 15.216C35.0403 17.472 33.1683 18.96 30.3603 18.96Z" fill="#31525B"/>
<path d="M60.1053 21.024V20.952L59.6253 18.552V13.752C59.6253 10.32 56.2893 8.04 50.3133 8.04C46.9293 8.04 43.1373 9.168 41.8173 10.296L42.7293 13.08L42.7773 13.224C44.4813 11.88 47.8893 11.16 50.3133 11.16C53.3133 11.16 55.7133 11.472 55.7853 13.56H50.1213C43.6893 13.56 41.2653 15 41.2653 17.52C41.2653 20.448 43.6893 21.432 48.4173 21.432C51.0333 21.432 54.3453 20.568 55.7853 19.248V21.024H60.1053ZM49.4973 18.624C46.3533 18.624 45.3693 18.24 45.3693 17.28C45.3693 16.2 46.4013 15.768 49.4733 15.768H55.7853V15.984C55.7853 17.616 53.1693 18.624 49.4973 18.624Z" fill="#31525B"/>
<path d="M62.6141 23.832L62.6861 23.928H66.2621L81.0941 0.767997L81.0221 0.671997H77.4461L62.6141 23.832Z" fill="#31525B"/>
<path d="M83.4969 16.008V19.536L101.425 13.872V10.8L83.4969 5.136V8.64L95.9529 12.336L83.4969 16.008Z" fill="#31525B"/>
</svg>
